<?xml version="1.0" encoding="UTF-8" standalone="no"?>
<!DOCTYPE svg PUBLIC "-//W3C//DTD SVG 1.1//EN" "http://www.w3.org/Graphics/SVG/1.1/DTD/svg11.dtd">
<svg width="100%" height="100%" viewBox="0 0 4961 4961" version="1.1" xmlns="http://www.w3.org/2000/svg" xmlns:xlink="http://www.w3.org/1999/xlink" xml:space="preserve" xmlns:serif="http://www.serif.com/" style="fill-rule:evenodd;clip-rule:evenodd;stroke-linejoin:round;stroke-miterlimit:2;">
    <g transform="matrix(1.272727,0,0,1.272727,-684.502505,-1352.899069)">
        <path d="M4435.461,1684.355L4435.461,4339.267C4435.461,4682.207 4157.038,4960.63 3814.099,4960.63L1159.186,4960.63C816.247,4960.63 537.823,4682.207 537.823,4339.267L537.823,1684.355C537.823,1341.415 816.247,1062.992 1159.186,1062.992L3814.099,1062.992C4157.038,1062.992 4435.461,1341.415 4435.461,1684.355Z" style="fill:rgb(17,17,17);"/>
    </g>
    <g transform="matrix(0.216113,-1.237863,1.235261,0.215659,-3019.734392,5007.35245)">
        <path d="M3617.238,2775.963L3186.387,3206.814C2965.144,2985.57 2665.073,2861.277 2352.186,2861.277C2283.508,2861.277 2214.962,2867.274 2147.327,2879.2L2041.521,2279.141C2144.087,2261.056 2248.037,2251.961 2352.186,2251.961C2826.673,2251.961 3281.726,2440.45 3617.238,2775.963Z" style="fill:rgb(0,213,48);"/>
    </g>
    <g transform="matrix(1,0,0,1,-387.72335,-387.72335)">
        <circle cx="2868.038" cy="3362.18" r="387.723" style="fill:rgb(0,213,48);"/>
    </g>
    <g transform="matrix(1.199797,-0.37349,0.372706,1.197276,-1847.94172,-992.540799)">
        <path d="M3617.238,2775.963L3186.387,3206.814C2965.144,2985.57 2665.073,2861.277 2352.186,2861.277C2283.508,2861.277 2214.962,2867.274 2147.327,2879.2L2041.521,2279.141C2144.087,2261.056 2248.037,2251.961 2352.186,2251.961C2826.673,2251.961 3281.726,2440.45 3617.238,2775.963Z" style="fill:rgb(255,234,0);"/>
    </g>
    <g transform="matrix(0.886583,0.890494,-0.888623,0.88472,3985.845789,-2702.622704)">
        <path d="M3617.238,2775.963L3186.387,3206.814C2965.144,2985.57 2665.073,2861.277 2352.186,2861.277C2283.508,2861.277 2214.962,2867.274 2147.327,2879.2L2041.521,2279.141C2144.087,2261.056 2248.037,2251.961 2352.186,2251.961C2826.673,2251.961 3281.726,2440.45 3617.238,2775.963Z" style="fill:rgb(255,70,0);"/>
    </g>
</svg>
